<svg width="40" height="40" viewBox="0 0 40 40" fill="none" xmlns="http://www.w3.org/2000/svg">
    <path d="M0 20C0 8.95431 8.95431 0 20 0C31.0457 0 40 8.95431 40 20C40 31.0457 31.0457 40 20 40C8.95431 40 0 31.0457 0 20Z" fill="url(#paint0_linear_231_2009)"/>
    <path d="M6.57344 9.35193C6.22218 9.35193 5.9375 9.57497 5.9375 9.85003V19.4529C5.9375 19.728 6.22226 19.951 6.57344 19.951C6.92462 19.951 7.20939 19.7279 7.20939 19.4529V9.85003C7.20947 9.57497 6.92471 9.35193 6.57344 9.35193Z" fill="#F38744"/>
    <path d="M8.62302 25.3226H9.61225V17.4087H8.62302C6.43758 17.4087 4.66602 19.1803 4.66602 21.3656C4.66602 23.5449 6.43159 25.3226 8.62302 25.3226Z" fill="#D0D5DD"/>
    <path d="M31.376 25.3226H30.3867V17.4087H31.376C33.5613 17.4087 35.333 19.1803 35.333 21.3657C35.3329 23.5449 33.5673 25.3226 31.376 25.3226Z" fill="white"/>
    <path d="M32.3658 21.3652C32.3658 26.5411 28.1721 30.7631 22.9679 30.7631H17.032C11.8423 30.7632 7.63477 26.5556 7.63477 21.3652C7.63477 14.5549 13.1522 9 20 9C22.7242 9 25.2481 9.88288 27.2951 11.3807C30.3662 13.6274 32.3658 17.2568 32.3658 21.3652Z" fill="white"/>
    <path d="M21.1016 30.7632C10.4198 20.9963 14.9687 9.35643 20 9C13.1522 9 7.63477 14.5549 7.63477 21.3652C7.63477 26.5556 11.8423 30.7632 17.032 30.7632H21.1016Z" fill="#D0D5DD"/>
    <path d="M29.3973 21.366C29.3973 24.6348 26.7493 27.3013 23.4621 27.3013H16.5375C13.2588 27.3013 10.6016 24.644 10.6016 21.366C10.6016 18.7396 12.3109 16.5028 14.6883 15.7244C15.2696 15.5339 15.8911 15.4308 16.5375 15.4308H23.4621C26.7402 15.4307 29.3973 18.088 29.3973 21.366Z" fill="#D6BBFB"/>
    <path d="M17.9545 27.3013H16.5375C13.2588 27.3013 10.6016 24.6441 10.6016 21.366C10.6016 18.7396 12.3109 16.5029 14.6883 15.7244C14.3729 19.1417 14.9944 23.2376 17.9545 27.3013Z" fill="#9E77ED"/>
    <path d="M6.64404 11.9678C7.46357 11.9678 8.12792 11.3034 8.12792 10.4839C8.12792 9.66436 7.46357 9 6.64404 9C5.82451 9 5.16016 9.66436 5.16016 10.4839C5.16016 11.3034 5.82451 11.9678 6.64404 11.9678Z" fill="white"/>
    <path d="M16.567 22.0192C16.5674 22.902 15.6692 23.618 14.5607 23.6186C13.4522 23.6191 12.5532 22.904 12.5527 22.0212C12.5523 21.1385 13.4505 20.4224 14.5591 20.4218C15.6675 20.4213 16.5665 21.1364 16.567 22.0192Z" fill="#F38744"/>
    <path d="M23.4316 22.0155C23.4321 22.8983 24.331 23.6134 25.4396 23.6128C26.548 23.6123 27.4463 22.8962 27.4459 22.0135C27.4455 21.1307 26.5465 20.4155 25.438 20.4161C24.3294 20.4167 23.4312 21.1327 23.4316 22.0155Z" fill="#F38744"/>
    <path d="M21.9661 21.2946C21.9655 20.0787 21.0846 19.9649 19.9981 19.9655C18.9115 19.966 18.0307 20.0807 18.0313 21.2966C18.0319 22.5125 18.9132 23.4977 19.9998 23.4971C21.0864 23.4966 21.9668 22.5105 21.9661 21.2946Z" fill="#7F56D9"/>
    <path d="M14.7739 20.7732C14.5019 20.7733 14.2814 20.5528 14.2813 20.2807C14.2809 19.4805 14.9281 18.8324 15.7285 18.832C16.5263 18.8316 17.1768 19.4802 17.1773 20.2793C17.1775 20.5514 16.9569 20.7721 16.6849 20.7722C16.4131 20.7724 16.1921 20.5523 16.1919 20.2798C16.1918 19.8663 15.6907 19.664 15.402 19.953C15.3147 20.0404 15.2666 20.1566 15.2667 20.2802C15.2668 20.5517 15.0469 20.7732 14.7739 20.7732Z" fill="#53389E"/>
    <path d="M23.313 20.7698C23.041 20.7698 22.8204 20.5494 22.8203 20.2773C22.8199 19.4789 23.4692 18.829 24.2677 18.8285C25.0678 18.8281 25.716 19.4755 25.7164 20.2759C25.7165 20.548 25.4961 20.7687 25.224 20.7688C24.9527 20.7689 24.7312 20.5494 24.7311 20.2763C24.7309 20.0209 24.5241 19.814 24.2684 19.814C24.014 19.814 23.8057 20.0209 23.8058 20.2769C23.8058 20.5477 23.5865 20.7698 23.313 20.7698Z" fill="#53389E"/>
    <defs>
    <linearGradient id="paint0_linear_231_2009" x1="0" y1="0" x2="40" y2="40" gradientUnits="userSpaceOnUse">
    <stop stop-color="#B39FFF"/>
    <stop offset="1" stop-color="#6A1ED2"/>
    </linearGradient>
    </defs>
    </svg>    